<!--?xml version="1.0" encoding="UTF-8" standalone="no"?-->

<!-- Generated by graphviz version 2.28.0 (20110507.0327)
 -->
<!-- Title: D Pages: 1 -->
<svg width="576pt" height="189pt" viewBox="0.00 0.00 576.00 188.64" xmlns="http://www.w3.org/2000/svg" xmlns:xlink="http://www.w3.org/1999/xlink">
<g id="graph1" class="graph" transform="scale(0.757895 0.757895) rotate(0) translate(4 244.9)">
<title>D</title>
<polygon fill="white" stroke="white" points="-4,5 -4,-244.9 757,-244.9 757,5 -4,5"></polygon>
<!-- gcc -->
<g id="node2" class="node"><title>gcc</title>
<ellipse fill="none" stroke="black" cx="703" cy="-126" rx="27" ry="18"></ellipse>
<text text-anchor="middle" x="703" y="-121.8" font-family="Times,serif" font-size="14.00">gcc</text>
</g>
<!-- netpbm -->
<g id="node3" class="node"><title>netpbm</title>
<ellipse fill="none" stroke="black" cx="703" cy="-218" rx="40.0089" ry="18"></ellipse>
<text text-anchor="middle" x="703" y="-213.8" font-family="Times,serif" font-size="14.00">netpbm</text>
</g>
<!-- gstreamer -->
<g id="node4" class="node"><title>gstreamer</title>
<ellipse fill="none" stroke="black" cx="703" cy="-18" rx="49.2125" ry="18"></ellipse>
<text text-anchor="middle" x="703" y="-13.8" font-family="Times,serif" font-size="14.00">gstreamer</text>
</g>
<!-- ffmpeg -->
<g id="node5" class="node"><title>ffmpeg</title>
<ellipse fill="none" stroke="black" cx="703" cy="-72" rx="38.844" ry="18"></ellipse>
<text text-anchor="middle" x="703" y="-67.8" font-family="Times,serif" font-size="14.00">ffmpeg</text>
</g>
<!-- res/mak.210.6.sh\nres/mak.640.5.sh\nres/6mm.frame3946.jpg.sh\nres/pointed.pellet.frame0360_undistorted.jpg.sh -->
<g id="node6" class="node"><title>res/mak.210.6.sh\nres/mak.640.5.sh\nres/6mm.frame3946.jpg.sh\nres/pointed.pellet.frame0360_undistorted.jpg.sh</title>
<polygon fill="none" stroke="black" points="284.275,-182.7 -0.275133,-182.7 -0.275133,-107.3 284.275,-107.3 284.275,-182.7"></polygon>
<text text-anchor="middle" x="142" y="-166" font-family="Times,serif" font-size="14.00">res/mak.210.6.sh</text>
<text text-anchor="middle" x="142" y="-149.2" font-family="Times,serif" font-size="14.00">res/mak.640.5.sh</text>
<text text-anchor="middle" x="142" y="-132.4" font-family="Times,serif" font-size="14.00">res/6mm.frame3946.jpg.sh</text>
<text text-anchor="middle" x="142" y="-115.6" font-family="Times,serif" font-size="14.00">res/pointed.pellet.frame0360_undistorted.jpg.sh</text>
</g>
<!-- res/mak.210.6.sh\nres/mak.640.5.sh\nres/6mm.frame3946.jpg.sh\nres/pointed.pellet.frame0360_undistorted.jpg.sh&#45;&gt;netpbm -->
<g id="edge4" class="edge"><title>res/mak.210.6.sh\nres/mak.640.5.sh\nres/6mm.frame3946.jpg.sh\nres/pointed.pellet.frame0360_undistorted.jpg.sh-&gt;netpbm</title>
<path fill="none" stroke="black" d="M263.231,-182.322C336.134,-202.982 431.484,-226.542 518,-237 562.123,-242.333 573.83,-241.933 618,-237 631.249,-235.52 645.459,-232.766 658.353,-229.805"></path>
<polygon fill="black" stroke="black" points="659.459,-233.14 668.369,-227.407 657.829,-226.332 659.459,-233.14"></polygon>
</g>
<!-- res/pngs2anim -->
<g id="node9" class="node"><title>res/pngs2anim</title>
<polygon fill="none" stroke="black" points="616.651,-44 519.349,-44 519.349,-8 616.651,-8 616.651,-44"></polygon>
<text text-anchor="middle" x="568" y="-21.8" font-family="Times,serif" font-size="14.00">res/pngs2anim</text>
</g>
<!-- res/mak.210.6.sh\nres/mak.640.5.sh\nres/6mm.frame3946.jpg.sh\nres/pointed.pellet.frame0360_undistorted.jpg.sh&#45;&gt;res/pngs2anim -->
<g id="edge5" class="edge"><title>res/mak.210.6.sh\nres/mak.640.5.sh\nres/6mm.frame3946.jpg.sh\nres/pointed.pellet.frame0360_undistorted.jpg.sh-&gt;res/pngs2anim</title>
<path fill="none" stroke="black" d="M275.993,-107.674C354.395,-85.6699 449.619,-58.9441 509.284,-42.1986"></path>
<polygon fill="black" stroke="black" points="510.59,-45.4675 519.272,-39.3954 508.698,-38.7279 510.59,-45.4675"></polygon>
</g>
<!-- res/20000eps.34.9.41.a.sh\nres/20000eps.43.7.43.a.sh -->
<g id="node11" class="node"><title>res/20000eps.34.9.41.a.sh\nres/20000eps.43.7.43.a.sh</title>
<polygon fill="none" stroke="black" points="481.529,-165.602 320.471,-165.602 320.471,-124.398 481.529,-124.398 481.529,-165.602"></polygon>
<text text-anchor="middle" x="401" y="-149.2" font-family="Times,serif" font-size="14.00">res/20000eps.34.9.41.a.sh</text>
<text text-anchor="middle" x="401" y="-132.4" font-family="Times,serif" font-size="14.00">res/20000eps.43.7.43.a.sh</text>
</g>
<!-- res/mak.210.6.sh\nres/mak.640.5.sh\nres/6mm.frame3946.jpg.sh\nres/pointed.pellet.frame0360_undistorted.jpg.sh&#45;&gt;res/20000eps.34.9.41.a.sh\nres/20000eps.43.7.43.a.sh -->
<g id="edge7" class="edge"><title>res/mak.210.6.sh\nres/mak.640.5.sh\nres/6mm.frame3946.jpg.sh\nres/pointed.pellet.frame0360_undistorted.jpg.sh-&gt;res/20000eps.34.9.41.a.sh\nres/20000eps.43.7.43.a.sh</title>
</g>
<!-- res/pngs2anim&#45;&gt;gstreamer -->
<g id="edge16" class="edge"><title>res/pngs2anim-&gt;gstreamer</title>
<path fill="none" stroke="black" d="M617.016,-23.1118C625.882,-22.5785 635.224,-22.0166 644.341,-21.4682"></path>
<polygon fill="black" stroke="black" points="644.729,-24.9513 654.5,-20.8571 644.308,-17.9639 644.729,-24.9513"></polygon>
</g>
<!-- res/pngs2anim&#45;&gt;ffmpeg -->
<g id="edge17" class="edge"><title>res/pngs2anim-&gt;ffmpeg</title>
<path fill="none" stroke="black" d="M617.016,-42.6071C631.767,-47.709 647.836,-53.2667 661.991,-58.1624"></path>
<polygon fill="black" stroke="black" points="660.851,-61.4713 671.445,-61.4322 663.139,-54.8558 660.851,-61.4713"></polygon>
</g>
<!-- res/20000eps.34.9.41.a.sh\nres/20000eps.43.7.43.a.sh&#45;&gt;gcc -->
<g id="edge10" class="edge"><title>res/20000eps.34.9.41.a.sh\nres/20000eps.43.7.43.a.sh-&gt;gcc</title>
<path fill="none" stroke="black" d="M481.607,-139.958C541.389,-136.172 620.462,-131.164 665.827,-128.291"></path>
<polygon fill="black" stroke="black" points="666.302,-131.768 676.061,-127.643 665.86,-124.782 666.302,-131.768"></polygon>
</g>
<!-- res/20000eps.34.9.41.a.sh\nres/20000eps.43.7.43.a.sh&#45;&gt;netpbm -->
<g id="edge11" class="edge"><title>res/20000eps.34.9.41.a.sh\nres/20000eps.43.7.43.a.sh-&gt;netpbm</title>
<path fill="none" stroke="black" d="M481.704,-154.732C522.897,-160.836 573.688,-170.043 618,-183 634.046,-187.692 651.18,-194.485 665.759,-200.841"></path>
<polygon fill="black" stroke="black" points="664.376,-204.056 674.935,-204.928 667.224,-197.662 664.376,-204.056"></polygon>
</g>
<!-- res/20000eps.34.9.41.a.sh\nres/20000eps.43.7.43.a.sh&#45;&gt;res/pngs2anim -->
<g id="edge12" class="edge"><title>res/20000eps.34.9.41.a.sh\nres/20000eps.43.7.43.a.sh-&gt;res/pngs2anim</title>
<path fill="none" stroke="black" d="M430.205,-124.732C445.728,-113.358 465.195,-98.7311 482,-85 498.577,-71.455 500.517,-65.3535 518,-53 519.636,-51.844 521.327,-50.699 523.052,-49.5707"></path>
<polygon fill="black" stroke="black" points="525.228,-52.3399 531.882,-44.0954 521.539,-46.3908 525.228,-52.3399"></polygon>
</g>
<!-- res/circle.c -->
<g id="node14" class="node"><title>res/circle.c</title>
<polygon fill="none" stroke="black" points="606.511,-228 529.489,-228 529.489,-192 606.511,-192 606.511,-228"></polygon>
<text text-anchor="middle" x="568" y="-205.8" font-family="Times,serif" font-size="14.00">res/circle.c</text>
</g>
<!-- res/20000eps.34.9.41.a.sh\nres/20000eps.43.7.43.a.sh&#45;&gt;res/circle.c -->
<g id="edge13" class="edge"><title>res/20000eps.34.9.41.a.sh\nres/20000eps.43.7.43.a.sh-&gt;res/circle.c</title>
<path fill="none" stroke="black" d="M453.303,-165.21C474.536,-173.575 499.003,-183.213 519.788,-191.401"></path>
<polygon fill="black" stroke="black" points="518.772,-194.763 529.359,-195.172 521.338,-188.25 518.772,-194.763"></polygon>
</g>
<!-- tools/toFrames -->
<g id="node17" class="node"><title>tools/toFrames</title>
<polygon fill="none" stroke="black" points="617.715,-98 518.285,-98 518.285,-62 617.715,-62 617.715,-98"></polygon>
<text text-anchor="middle" x="568" y="-75.8" font-family="Times,serif" font-size="14.00">tools/toFrames</text>
</g>
<!-- tools/toFrames&#45;&gt;ffmpeg -->
<g id="edge19" class="edge"><title>tools/toFrames-&gt;ffmpeg</title>
<path fill="none" stroke="black" d="M617.769,-77.0665C629.581,-76.356 642.198,-75.5971 653.976,-74.8887"></path>
<polygon fill="black" stroke="black" points="654.297,-78.3758 664.068,-74.2816 653.876,-71.3884 654.297,-78.3758"></polygon>
</g>
</g>
</svg>
